<?xml version="1.0" standalone="no"?>
<!DOCTYPE svg PUBLIC "-//W3C//DTD SVG 20010904//EN"
 "http://www.w3.org/TR/2001/REC-SVG-20010904/DTD/svg10.dtd">
<svg version="1.0" xmlns="http://www.w3.org/2000/svg"
 width="300.000000pt" height="256.000000pt" viewBox="0 0 300.000000 256.000000"
 preserveAspectRatio="xMidYMid meet">
<metadata>
Created by potrace 1.10, written by Peter Selinger 2001-2011
</metadata>
<g transform="translate(0.000000,256.000000) scale(0.100000,-0.100000)"
fill="#000000" stroke="none">
<path d="M1450 2545 c-7 -8 -21 -15 -31 -15 -20 0 -36 -40 -24 -59 3 -6 23
-11 44 -11 29 0 40 -5 50 -24 12 -21 9 -28 -31 -80 -38 -50 -47 -56 -79 -56
-56 0 -66 20 -40 79 27 64 27 82 -4 111 -33 31 -93 23 -144 -19 -20 -17 -55
-43 -78 -58 -48 -32 -55 -46 -17 -37 l26 7 -27 -44 c-16 -24 -36 -56 -47 -71
-11 -16 -15 -28 -9 -28 5 0 13 5 16 10 3 6 10 10 14 10 5 0 -5 -46 -20 -102
-32 -113 -34 -122 -18 -112 7 4 9 0 5 -12 -20 -67 -65 -268 -61 -272 10 -11
55 42 70 82 14 38 14 21 -1 -32 l-7 -23 39 21 c47 26 63 34 89 47 11 5 26 21
32 34 7 13 13 19 13 12 0 -22 28 -3 40 28 7 16 25 38 40 49 15 11 37 39 49 62
19 40 22 40 34 -2 2 -9 9 0 17 23 16 42 25 47 34 15 13 -48 -1 -169 -30 -262
-7 -21 -6 -21 15 -2 30 28 34 16 12 -37 -19 -44 -21 -46 -50 -37 -37 10 -66
-8 -59 -37 5 -19 -11 -31 -69 -48 -13 -3 -23 -11 -23 -16 0 -5 -11 -14 -25
-19 -20 -7 -25 -17 -25 -42 0 -25 -3 -29 -12 -20 -19 19 -65 14 -153 -14 l-81
-27 -83 82 c-46 45 -106 96 -134 115 -29 18 -58 40 -66 49 -12 15 -11 17 5 17
24 0 99 -34 108 -49 4 -6 19 -11 33 -11 21 0 25 4 21 24 -4 18 -1 22 13 19 23
-6 41 29 33 62 -4 18 -21 33 -54 50 -51 26 -110 72 -110 85 0 5 12 13 28 18
l27 9 -37 16 c-21 9 -38 23 -38 31 0 10 -9 16 -23 16 -13 0 -28 5 -34 11 -8 8
-13 7 -18 -1 -9 -15 13 -30 32 -23 7 3 13 0 13 -6 0 -10 -19 -15 -46 -12 -15
2 -39 -27 -30 -36 3 -4 13 2 21 13 13 18 14 18 15 1 0 -10 4 -15 10 -12 14 9
61 -19 100 -60 19 -20 56 -48 83 -61 43 -23 61 -44 36 -44 -5 0 -7 5 -4 10 3
6 -1 10 -9 10 -23 0 -20 -17 4 -25 31 -10 25 -35 -9 -35 -30 0 -49 -24 -29
-36 7 -5 8 -2 3 6 -5 9 -4 11 3 6 15 -9 16 -26 1 -26 -6 0 -25 11 -43 25 -18
14 -38 25 -45 25 -7 0 -10 3 -7 8 2 4 -13 6 -34 4 -44 -5 -103 12 -121 34 -7
8 -16 32 -20 52 l-7 37 -1 -38 c-1 -43 33 -87 69 -87 11 0 30 -12 43 -26 12
-14 47 -43 77 -64 64 -43 182 -155 199 -187 15 -30 14 -66 -1 -58 -7 4 1 -5
17 -19 17 -14 60 -42 97 -61 66 -35 117 -92 103 -115 -3 -6 -15 -43 -26 -83
-29 -108 -37 -122 -75 -140 -43 -21 -44 -21 -44 3 0 10 13 33 29 49 32 32 51
85 51 139 0 25 -6 36 -31 51 -19 12 -26 20 -17 23 7 3 -16 15 -52 27 -53 17
-68 27 -80 53 -8 17 -25 38 -38 46 -22 15 -22 14 4 -37 25 -48 31 -53 88 -71
71 -22 55 -26 -23 -5 -30 8 -59 23 -68 34 -16 24 -101 76 -109 68 -3 -3 8 -13
25 -21 17 -9 39 -29 48 -44 10 -15 25 -33 33 -40 8 -8 11 -11 5 -9 -6 3 -10
-14 -11 -41 -1 -63 -8 -111 -15 -106 -9 5 -40 -66 -34 -76 7 -11 -12 -50 -23
-50 -4 0 -17 16 -30 36 -33 51 -38 35 -8 -25 14 -28 26 -59 26 -69 0 -22 -37
-79 -92 -141 -21 -25 -57 -82 -79 -126 -48 -96 -59 -173 -36 -247 13 -41 13
-47 0 -52 -25 -10 -30 -7 -36 23 -4 18 -14 32 -27 36 -18 6 -20 12 -14 33 4
15 8 77 9 139 l1 111 32 30 c42 40 41 67 -8 131 -55 75 -61 123 -25 204 62
139 75 178 81 236 6 53 3 69 -20 121 -39 87 -75 215 -82 290 -8 81 7 139 48
185 28 33 31 34 44 18 12 -17 13 -16 14 6 0 14 8 33 17 43 20 22 25 58 7 58
-6 0 -22 -9 -35 -19 -18 -14 -28 -17 -42 -9 -11 5 -29 7 -42 4 -29 -7 -85 -54
-85 -70 0 -7 -11 -23 -26 -36 -51 -49 -88 -174 -60 -203 9 -9 16 -26 16 -39 0
-12 10 -46 22 -75 l22 -53 -24 -25 -23 -25 24 0 c14 0 34 7 46 15 19 14 21 13
27 -17 3 -17 6 -49 6 -72 l1 -41 24 28 25 28 1 -28 c0 -25 1 -26 10 -8 7 16 8
15 5 -10 -2 -16 -7 -41 -11 -55 -8 -25 -8 -25 24 5 17 16 34 40 38 53 10 41
22 4 16 -52 -6 -70 -17 -100 -86 -256 -65 -147 -91 -190 -113 -190 -22 0 -17
28 26 143 51 135 53 184 9 221 -43 36 -96 34 -181 -8 -62 -29 -66 -34 -52 -48
20 -20 9 -43 -41 -86 -43 -38 -44 -43 -5 -32 17 5 30 5 30 1 0 -17 -53 -137
-67 -153 -9 -10 -24 -18 -35 -18 -22 0 -24 -23 -4 -39 10 -8 30 -10 60 -6 53
8 83 40 135 143 23 46 37 62 52 62 18 0 20 -4 14 -28 -37 -147 -13 -224 65
-207 27 6 60 37 85 80 9 16 14 13 40 -25 61 -88 62 -100 9 -145 -23 -19 -24
-27 -27 -167 -4 -140 -3 -147 17 -156 20 -8 19 -10 -11 -26 -65 -33 -68 -68
-10 -139 23 -28 50 -71 61 -94 24 -55 61 -71 122 -55 25 7 49 12 54 12 5 0 26
-24 45 -54 55 -81 63 -84 192 -51 135 35 186 35 293 1 51 -17 115 -29 160 -31
41 -2 63 -1 48 1 -16 3 -28 9 -28 13 0 5 -23 11 -51 15 -28 4 -71 15 -97 26
-41 16 -44 19 -27 27 26 10 554 11 580 0 17 -7 12 -11 -32 -27 -28 -10 -71
-21 -95 -25 -24 -4 -47 -11 -53 -15 -5 -5 -21 -11 -35 -13 -14 -3 9 -4 50 -2
45 2 109 15 160 31 106 34 157 34 289 0 127 -32 143 -28 195 50 20 30 41 54
46 54 5 0 29 -5 54 -12 61 -16 98 0 122 55 11 23 38 63 62 90 57 65 54 103
-14 148 -24 16 -25 17 -7 23 18 6 19 15 16 154 l-3 147 -31 26 c-42 34 -40 63
7 127 33 45 40 50 49 36 56 -93 137 -110 163 -34 10 28 5 89 -13 162 -6 24 -4
28 14 28 15 0 29 -16 52 -62 52 -103 82 -135 135 -143 30 -4 50 -2 60 6 20 16
18 39 -4 39 -11 0 -26 8 -35 18 -14 16 -67 136 -67 153 0 4 14 4 30 -1 39 -11
38 -6 -5 32 -50 43 -61 66 -42 86 14 13 8 18 -55 48 -87 42 -134 44 -177 8
-44 -37 -42 -86 9 -221 43 -115 48 -143 26 -143 -23 0 -49 44 -114 190 -62
138 -76 181 -85 260 -7 51 6 88 16 48 4 -13 21 -37 38 -53 32 -30 32 -30 24
-5 -4 14 -9 39 -11 55 -3 25 -2 26 5 10 9 -18 10 -17 10 8 l1 28 25 -28 24
-28 1 41 c0 23 3 55 6 72 6 30 8 31 27 17 12 -8 32 -15 46 -15 l24 0 -23 25
-24 25 22 53 c12 29 22 63 22 75 0 13 7 30 16 39 11 12 14 26 9 56 -9 50 -40
120 -61 138 -9 8 -28 31 -41 52 -30 48 -83 75 -116 60 -19 -9 -28 -8 -38 2 -8
7 -23 16 -35 19 -16 5 -20 2 -19 -13 1 -11 9 -29 18 -39 9 -10 17 -29 17 -43
1 -22 2 -23 14 -6 13 16 16 15 45 -18 39 -45 46 -71 45 -165 -1 -84 -30 -198
-75 -299 -45 -99 -38 -159 38 -328 56 -124 55 -160 -7 -244 -49 -64 -50 -91
-8 -131 l32 -30 1 -111 c1 -62 5 -124 9 -139 6 -21 4 -27 -14 -33 -13 -4 -23
-18 -27 -36 -6 -30 -11 -33 -36 -23 -13 5 -13 11 0 52 23 74 12 151 -36 247
-22 44 -58 101 -79 126 -55 62 -92 119 -92 141 0 10 11 41 25 68 14 27 25 53
25 57 0 9 -47 -43 -54 -60 -7 -18 -36 22 -29 40 6 15 -27 84 -37 78 -3 -2 -6
4 -7 13 0 9 -5 46 -10 80 -8 51 -7 65 3 69 8 3 11 9 8 14 -3 5 0 9 5 9 6 0 11
6 11 13 0 7 18 24 41 36 22 13 38 25 35 28 -8 8 -93 -45 -109 -68 -9 -11 -38
-26 -68 -34 -78 -21 -94 -17 -23 5 57 18 63 23 88 71 26 51 26 52 4 37 -13 -8
-30 -29 -38 -46 -12 -24 -27 -36 -68 -49 -28 -10 -53 -22 -53 -28 -1 -5 -15
-18 -30 -27 -23 -14 -29 -25 -29 -50 0 -53 18 -101 50 -136 16 -18 30 -42 30
-53 0 -23 -1 -23 -44 -2 -38 18 -46 32 -75 140 -11 40 -23 78 -26 83 -14 22
40 81 105 115 52 28 158 103 113 80 -18 -9 -17 29 2 66 9 16 20 27 26 24 5 -4
8 -3 7 2 -4 13 96 108 160 152 32 21 67 51 79 65 13 14 32 26 43 26 36 0 70
44 69 87 l-1 38 -7 -37 c-13 -63 -38 -79 -153 -93 -29 -4 -59 -16 -77 -31 -31
-26 -56 -32 -48 -11 2 6 9 11 15 10 6 -2 9 4 5 13 -3 9 -15 14 -32 12 -32 -4
-42 27 -12 37 25 7 28 25 5 25 -8 0 -12 -4 -9 -10 3 -5 1 -10 -4 -10 -27 0 -6
21 48 50 32 17 68 44 80 60 24 33 76 64 91 55 6 -3 10 2 10 12 1 17 2 17 15
-1 8 -11 18 -17 21 -13 9 9 -15 38 -30 36 -27 -3 -46 2 -46 12 0 6 6 9 13 6
21 -8 44 10 31 23 -9 9 -14 9 -18 1 -4 -6 -18 -11 -32 -11 -15 0 -24 -6 -24
-16 0 -8 -17 -22 -37 -31 l-38 -16 28 -9 c15 -5 27 -13 27 -18 0 -13 -59 -59
-110 -85 -33 -17 -50 -32 -54 -50 -9 -34 10 -68 35 -62 16 4 18 1 13 -19 -5
-21 -3 -24 19 -24 14 0 29 5 33 11 9 15 84 49 108 49 16 0 17 -2 5 -17 -8 -9
-39 -32 -69 -51 -30 -20 -90 -71 -134 -115 l-79 -80 -82 26 c-106 35 -138 35
-160 0 l-18 -28 25 23 c13 12 31 22 39 22 24 -1 190 -55 190 -63 -1 -4 -1 -15
-1 -24 0 -10 -4 -24 -9 -31 -12 -20 -110 24 -121 54 -9 22 -14 23 -75 19 -37
-2 -65 -1 -63 3 2 4 10 20 18 36 14 27 13 29 -20 57 -19 16 -54 39 -77 51 -74
38 -51 55 67 49 69 -3 68 10 -6 97 -87 100 -128 192 -112 246 l11 36 17 -38
c10 -21 31 -49 47 -63 17 -14 34 -35 37 -47 8 -23 68 -75 107 -92 13 -6 43
-22 67 -35 35 -22 42 -23 42 -9 0 11 9 6 32 -17 17 -19 33 -29 35 -23 4 11
-48 228 -63 268 -4 12 -2 15 9 11 11 -5 9 15 -14 97 -33 122 -33 119 -14 112
24 -10 17 8 -25 64 -46 60 -48 66 -19 57 17 -6 19 -4 13 8 -14 23 -116 105
-147 116 -95 36 -146 -27 -100 -124 22 -47 10 -68 -44 -75 l-39 -6 4 76 c3 48
0 85 -7 99 -10 19 -9 25 11 41 l23 19 -35 1 c-19 0 -57 7 -84 15 -61 19 -71
19 -86 0z m70 -10 l25 -14 -37 -1 c-36 0 -54 10 -41 24 10 9 25 7 53 -9z m13
-34 c4 0 6 -6 5 -12 -2 -6 3 -14 10 -16 7 -3 10 1 6 10 -5 15 24 33 35 21 3
-4 0 -9 -6 -11 -7 -3 -13 -9 -13 -15 0 -6 6 -8 14 -5 8 3 17 -1 20 -8 4 -11
-2 -14 -24 -11 -17 2 -30 2 -30 1 0 -2 -3 -12 -7 -22 -5 -14 -4 -16 8 -7 19
14 51 12 57 -5 3 -9 -2 -11 -19 -7 -21 5 -20 4 3 -7 19 -9 24 -17 19 -26 -7
-10 -10 -10 -16 -1 -6 9 -10 9 -16 -1 -8 -12 -10 -12 -18 0 -10 15 -31 7 -31
-12 0 -8 3 -8 9 2 11 17 23 -1 15 -23 -15 -39 -34 -2 -28 54 4 36 -11 71 -29
67 -6 -1 -13 8 -15 19 -3 21 5 23 51 15z m-219 -37 c19 -19 20 -26 2 -84 -20
-69 -1 -100 62 -100 27 0 33 -3 28 -16 -3 -9 -6 -20 -6 -25 0 -6 -8 -5 -20 1
-11 6 -25 8 -31 5 -5 -4 -15 -2 -22 3 -12 10 -17 12 -38 12 -6 0 -8 7 -5 15 3
9 0 25 -7 35 -9 16 -9 24 1 41 9 14 10 24 3 33 -5 6 -6 17 -2 24 4 8 6 24 3
38 -4 22 -6 23 -31 10 -14 -7 -44 -21 -66 -31 -40 -17 -40 -17 -22 3 43 47
122 66 151 36z m537 -15 c62 -45 70 -55 24 -32 -22 11 -53 27 -70 34 -16 7
-34 15 -39 17 -4 3 -5 -5 -1 -17 4 -13 2 -21 -5 -21 -6 0 -8 -5 -3 -12 11 -18
13 -107 3 -113 -4 -3 -6 -14 -3 -25 4 -15 -2 -22 -23 -30 -15 -6 -34 -8 -41
-5 -8 3 -23 0 -33 -5 -15 -8 -21 -6 -29 9 -14 25 -5 31 40 31 54 0 77 34 60
89 -12 42 -15 94 -4 104 18 18 82 6 124 -24z m-594 -36 c5 -13 -103 -70 -113
-61 -10 11 15 37 55 58 38 20 52 21 58 3z m594 -10 c45 -24 65 -53 38 -53 -26
0 -107 53 -102 66 7 18 7 18 64 -13z m-591 -38 c0 -20 -60 -57 -82 -51 -24 6
-23 -6 1 -21 17 -11 18 -18 10 -45 -15 -55 -31 -88 -42 -88 -9 0 -6 44 8 110
3 14 -4 0 -15 -30 -10 -30 -20 -56 -20 -57 0 -2 -4 -3 -9 -3 -5 0 1 30 12 67
19 56 29 71 67 99 49 37 70 42 70 19z m580 -11 c65 -43 40 -64 -26 -23 -34 21
-40 30 -27 42 9 10 9 10 53 -19z m-316 -48 c-3 -9 -12 -16 -20 -16 -16 0 -19
16 -4 25 6 3 10 12 10 18 0 7 -4 6 -10 -3 -5 -8 -12 -11 -16 -7 -4 3 -1 13 6
22 11 14 14 13 26 -4 8 -11 11 -26 8 -35z m-56 -13 c-6 -7 -14 -10 -19 -7 -5
3 -9 0 -9 -5 0 -15 13 -14 28 1 10 10 15 10 22 -1 7 -12 14 -8 38 17 18 19 33
28 37 22 8 -13 -4 -32 -16 -25 -5 4 -9 1 -9 -5 0 -7 7 -10 15 -6 29 11 55 -30
55 -86 -1 -49 -2 -51 -15 -34 -8 11 -15 15 -15 10 0 -14 29 -51 30 -39 2 13
18 -26 19 -44 1 -11 -2 -11 -15 0 -9 7 -24 13 -34 14 -16 1 -17 -2 -8 -19 10
-19 12 -19 17 -3 6 16 9 16 29 -6 13 -14 22 -31 21 -38 -2 -8 5 -30 14 -49
l18 -35 -26 30 c-26 29 -26 29 -19 5 13 -39 11 -85 -3 -83 -7 2 -10 -4 -7 -12
8 -20 22 -19 27 3 4 13 5 11 6 -5 0 -13 -5 -23 -11 -24 -10 0 -10 -2 0 -6 6
-2 12 -15 12 -29 0 -17 -4 -22 -15 -18 -8 4 -15 1 -15 -6 0 -7 -8 -9 -21 -5
-13 4 -25 2 -29 -5 -5 -7 -9 -3 -12 14 -3 15 -1 23 5 19 6 -3 16 2 23 11 8 11
14 13 19 7 3 -6 11 -11 17 -11 6 0 4 8 -5 18 -10 10 -17 23 -17 29 0 13 -31
13 -47 0 -9 -6 -13 -6 -13 1 0 23 -43 126 -48 114 -3 -10 -7 -10 -20 0 -10 7
-4 -2 13 -20 27 -30 28 -33 12 -49 -16 -16 -17 -16 -17 12 0 21 -3 26 -9 16
-9 -13 -4 -51 7 -51 3 0 14 7 24 17 17 15 18 15 18 0 0 -10 -6 -17 -12 -17
-10 0 -9 -3 1 -9 11 -7 10 -15 -4 -45 -11 -24 -21 -33 -25 -26 -6 9 -9 9 -15
0 -10 -17 -35 19 -34 50 1 18 3 20 6 7 3 -11 11 -16 19 -13 8 3 14 1 14 -4 0
-6 7 -10 16 -10 14 0 14 2 0 15 -8 8 -20 15 -26 15 -8 0 -10 8 -7 22 3 12 2
30 -4 40 -7 12 -6 18 1 18 6 0 10 8 9 18 -2 9 1 27 5 40 7 22 9 23 27 6 32
-29 21 -10 -12 22 l-31 29 6 -25 c6 -21 5 -22 -4 -7 -6 9 -8 27 -4 39 6 20 8
20 19 5 6 -9 15 -14 18 -10 11 10 8 25 -2 18 -6 -3 -14 3 -20 12 -6 10 -11 12
-11 6 0 -22 -27 -14 -34 10 -9 34 -7 103 3 131 15 38 44 68 52 54 5 -7 3 -18
-3 -25z m399 4 c6 2 14 -4 17 -14 4 -16 5 -15 4 2 -1 43 4 37 28 -29 27 -79
24 -100 -6 -35 -21 48 -26 44 -10 -11 11 -37 0 -59 -18 -37 -6 7 -18 37 -25
66 -7 28 -16 51 -20 50 -20 -4 -47 11 -47 26 0 15 3 15 33 -3 17 -11 37 -18
44 -15z m-617 8 c-7 -8 -19 -15 -26 -15 -12 0 -12 -4 1 -23 11 -18 12 -31 4
-60 -9 -35 -32 -57 -45 -44 -3 3 1 30 9 60 8 31 12 59 8 62 -8 8 28 35 47 35
12 0 12 -3 2 -15z m-154 -86 c-23 -47 -25 -50 -20 -19 8 42 36 100 41 84 2 -6
-8 -36 -21 -65z m868 -7 c7 -29 12 -52 10 -52 -4 0 -40 82 -49 112 -7 21 -6
22 9 8 9 -9 22 -39 30 -68z m-114 7 c13 -53 10 -65 -14 -56 -16 7 -32 68 -22
92 10 28 24 15 36 -36z m-573 -6 c-6 -36 -23 -63 -39 -63 -10 0 -3 45 13 88
13 35 32 16 26 -25z m528 -20 c7 -37 3 -49 -14 -39 -15 10 -34 75 -26 94 6 16
7 16 20 -1 7 -10 16 -34 20 -54z m-485 24 c0 -24 -25 -67 -40 -67 -7 0 5 63
17 83 9 15 23 6 23 -16z m439 -24 c12 -42 8 -51 -13 -34 -17 14 -29 58 -21 72
10 16 24 1 34 -38z m-401 -11 c-9 -15 -24 -28 -32 -30 -14 -3 -14 1 -5 24 15
42 30 57 43 44 7 -7 6 -18 -6 -38z m358 5 c11 -31 11 -37 -1 -37 -17 0 -48 56
-39 71 11 18 27 4 40 -34z m-43 -12 c10 -21 12 -37 7 -40 -14 -9 -60 40 -60
64 0 30 34 15 53 -24z m-290 -33 c-15 -11 -18 -11 -21 3 -2 9 5 28 15 43 l18
27 3 -30 c3 -19 -2 -33 -15 -43z m-273 0 c0 -18 -18 -42 -31 -42 -5 0 -3 14 2
30 12 33 29 40 29 12z m846 3 c4 -8 7 -26 8 -40 0 -14 7 -27 14 -30 6 -2 12
-19 12 -37 0 -18 9 -67 20 -108 23 -89 26 -120 8 -102 -16 16 -79 262 -67 262
6 0 3 10 -5 22 -9 12 -16 28 -16 35 0 18 19 16 26 -2z m-822 -123 c-27 -139
-73 -246 -70 -162 1 16 4 30 7 30 3 0 16 55 30 123 22 116 40 160 47 116 2
-11 -4 -59 -14 -107z m791 75 c4 -23 18 -91 32 -150 14 -60 23 -111 20 -114
-14 -13 -41 57 -63 164 -28 139 -29 154 -10 147 8 -3 17 -24 21 -47z m-725 39
c0 -2 -9 -50 -21 -106 -19 -97 -54 -189 -66 -176 -3 3 4 40 15 83 12 43 26
106 33 141 7 40 16 62 25 62 8 0 14 -2 14 -4z m40 -16 c0 -64 -60 -253 -76
-238 -2 3 5 45 15 94 10 49 22 106 25 127 7 39 36 53 36 17z m56 3 c-3 -10
-10 -40 -16 -66 -6 -27 -22 -70 -35 -95 -22 -41 -25 -43 -21 -17 16 108 30
172 39 183 15 19 39 15 33 -5z m370 -20 c9 -36 -2 -39 -20 -4 -20 37 -20 42
-1 35 8 -4 18 -17 21 -31z m110 29 c9 -6 44 -163 44 -197 0 -24 -41 60 -55
114 -22 85 -20 104 11 83z m104 -50 c6 -32 20 -90 31 -130 25 -95 25 -116 -2
-75 -11 17 -31 80 -44 140 -13 59 -24 98 -24 85 -1 -12 8 -65 20 -118 22 -101
20 -121 -4 -82 -13 19 -57 196 -57 227 0 5 16 9 34 9 34 0 35 -1 46 -56z
m-530 31 c0 -10 -14 -38 -31 -63 l-31 -45 7 54 c7 65 10 71 36 71 11 0 19 -7
19 -17z m390 -9 c6 -14 10 -41 10 -61 l0 -36 -30 44 c-35 52 -39 79 -10 79 13
0 24 -10 30 -26z m-644 -31 c-3 -10 -15 -56 -26 -102 -23 -91 -49 -153 -49
-116 0 11 6 47 14 80 8 33 15 74 15 92 0 31 21 63 41 63 6 0 8 -8 5 -17z
m-526 -31 c0 -5 -11 -19 -24 -32 -17 -15 -33 -21 -51 -18 -20 4 -23 3 -14 -8
9 -11 8 -14 -4 -14 -9 0 -19 5 -22 10 -3 6 -18 10 -33 10 l-27 0 25 20 c28 22
70 26 88 8 10 -10 16 -7 28 10 15 22 34 30 34 14z m1894 -14 c12 -17 18 -20
28 -10 18 18 60 14 88 -8 l25 -20 -27 0 c-15 0 -30 -4 -33 -10 -3 -5 -13 -10
-22 -10 -12 0 -13 3 -4 14 9 11 6 12 -14 8 -18 -3 -34 3 -51 18 -13 13 -24 27
-24 32 0 16 19 8 34 -14z m-1769 -38 c8 -14 -18 -13 -50 2 -24 11 -25 13 -8
19 19 7 47 -4 58 -21z m1664 4 c-13 -7 -33 -13 -44 -13 -19 0 -19 0 2 18 14
12 31 17 44 14 21 -6 21 -6 -2 -19z m-1899 -29 c22 -12 23 -14 8 -20 -10 -4
-16 -11 -13 -16 9 -14 -43 -42 -91 -49 -57 -9 -57 5 1 59 49 45 58 47 95 26z
m2175 -26 c58 -54 58 -68 1 -59 -49 7 -100 36 -91 51 4 5 -1 12 -11 16 -14 5
-13 8 7 19 36 20 46 17 94 -27z m-941 -60 c-5 -9 26 -92 33 -86 2 2 -1 16 -7
31 -13 36 -2 27 38 -28 36 -49 35 -51 -28 -59 -19 -3 -45 -8 -56 -12 -17 -5
-22 -2 -26 17 -3 13 -9 31 -13 40 -5 13 -2 15 15 11 21 -6 22 -3 16 36 -3 22
-9 60 -12 84 l-6 42 26 -34 c14 -19 23 -38 20 -42z m-116 -23 c-2 -10 -7 -13
-17 -7 -8 6 -11 16 -7 27 8 21 30 4 24 -20z m-1158 5 c-5 -11 -19 -23 -31 -26
-11 -4 -18 -9 -16 -12 3 -2 15 0 26 7 28 15 27 -4 -1 -24 -12 -9 -37 -16 -55
-16 -17 0 -35 -5 -39 -11 -4 -8 1 -9 17 -4 l24 8 -20 -22 -19 -22 -8 22 c-13
36 -1 53 60 86 68 37 76 39 62 14z m1120 -35 c0 -30 5 -58 10 -61 6 -3 10 -12
10 -20 0 -9 -14 -13 -50 -12 -52 2 -59 11 -44 52 5 13 9 14 15 4 6 -10 13 -3
24 23 8 21 15 44 15 53 0 8 5 15 10 15 6 0 10 -24 10 -54z m1099 22 c64 -34
77 -51 63 -87 l-8 -22 -19 22 -20 22 24 -8 c16 -5 21 -4 17 4 -4 6 -22 11 -39
11 -18 0 -43 7 -55 16 -28 20 -29 39 -1 24 11 -7 23 -9 26 -7 2 3 -5 8 -16 12
-18 5 -50 45 -37 45 3 0 32 -14 65 -32z m-2299 2 c-19 -10 -37 -16 -40 -13 -9
8 33 33 54 33 16 -1 13 -5 -14 -20z m2346 6 c30 -23 13 -26 -26 -6 -27 15 -30
19 -14 20 11 0 29 -6 40 -14z m-2263 -63 c-3 -10 -25 -37 -49 -61 -24 -23 -44
-47 -44 -53 0 -5 17 8 38 31 22 22 44 40 49 40 6 0 13 -17 16 -37 4 -21 23
-90 42 -153 33 -103 35 -118 24 -145 -13 -29 -13 -29 -19 35 -4 36 -8 52 -9
35 -2 -26 -3 -28 -11 -10 -5 11 -9 44 -9 73 -1 34 -5 51 -11 47 -7 -4 -8 -24
-4 -51 7 -48 -2 -98 -15 -89 -15 9 -24 147 -12 178 6 17 7 26 1 22 -5 -3 -15
-25 -21 -48 -11 -43 -25 -67 -40 -67 -4 0 -1 12 7 28 7 15 13 38 13 52 -2 23
-2 24 -6 3 -7 -37 -19 -27 -37 31 -20 63 -10 98 35 116 16 7 34 18 40 26 16
20 30 17 22 -3z m2176 3 c6 -8 24 -19 40 -26 45 -18 55 -53 35 -116 -18 -58
-30 -68 -37 -31 -4 21 -4 20 -6 -3 0 -14 6 -37 13 -52 8 -16 11 -28 7 -28 -15
0 -29 24 -40 67 -6 23 -16 45 -21 48 -6 4 -5 -5 1 -22 12 -31 3 -169 -12 -178
-13 -9 -22 42 -16 90 4 25 2 47 -3 50 -6 4 -10 -15 -11 -47 0 -29 -4 -62 -9
-73 -8 -18 -9 -16 -11 10 -1 17 -5 1 -9 -35 -6 -64 -6 -64 -19 -35 -11 27 -9
42 24 145 19 63 38 132 42 153 3 20 10 37 16 37 5 0 27 -18 49 -40 21 -23 38
-36 38 -31 0 6 -20 30 -44 53 -42 42 -64 78 -47 78 5 0 14 -6 20 -14z m-1012
-23 c-7 -37 9 -63 38 -63 13 0 27 -5 31 -12 5 -8 -6 -10 -43 -5 -30 3 -55 1
-61 -5 -6 -6 -23 -7 -42 -3 -38 8 -33 16 17 24 35 6 38 9 46 49 4 23 11 42 14
42 3 0 3 -12 0 -27z m45 -18 c3 -14 1 -28 -3 -31 -15 -9 -29 6 -29 32 0 32 26
31 32 -1z m-180 -32 c10 -9 18 -19 18 -22 0 -3 -27 -7 -60 -7 -33 -1 -60 2
-60 7 0 5 11 9 24 9 13 0 29 7 36 15 16 19 19 19 42 -2z m5 -45 c6 -7 13 -30
16 -52 6 -38 6 -38 -14 -20 -18 16 -19 16 -13 1 4 -12 1 -17 -13 -17 -25 0
-49 27 -59 64 -7 27 -6 29 20 22 15 -4 26 -2 26 4 0 14 26 13 37 -2z m-104
-46 c3 -23 1 -40 -3 -37 -5 3 -10 -1 -13 -7 -7 -21 -37 11 -37 39 0 13 4 22 9
18 6 -3 15 4 21 16 14 26 16 24 23 -29z m237 44 c0 -2 -7 -20 -15 -40 -15 -35
-35 -49 -35 -23 0 8 -3 8 -9 -2 -7 -11 -13 -7 -25 17 -21 41 -20 45 8 40 14
-3 31 -1 38 3 13 9 38 12 38 5z m79 -23 c10 -17 10 -17 11 0 0 15 3 16 20 7
28 -15 26 -61 -3 -89 -26 -24 -67 -20 -47 5 10 10 6 11 -19 1 -17 -6 -32 -9
-35 -7 -2 3 1 26 7 53 10 39 15 47 34 47 12 0 27 -8 32 -17z m-399 -31 c0 -15
7 -38 16 -50 14 -20 14 -23 -1 -28 -8 -4 -23 0 -33 7 -15 13 -16 12 -3 -3 11
-15 11 -19 -2 -24 -9 -3 -25 -1 -36 6 -35 18 -40 90 -6 76 7 -2 17 6 24 20 15
34 41 31 41 -4z m516 -47 c21 -32 12 -55 -22 -55 -23 0 -25 2 -13 17 13 15 12
15 -9 4 -34 -18 -37 -7 -11 28 28 37 34 38 55 6z m-201 -13 c191 -44 178 -52
-87 -52 -131 0 -238 2 -238 5 0 3 10 10 23 15 12 6 29 14 37 19 43 26 180 33
265 13z m-433 -19 c28 -25 22 -30 -32 -25 -46 4 -50 3 -59 -20 -12 -32 -109
-77 -122 -56 -8 13 -12 40 -6 55 2 9 154 61 181 62 11 1 28 -6 38 -16z m770
-108 c0 -59 -3 -68 -23 -82 -13 -9 -44 -35 -69 -59 -25 -23 -76 -57 -113 -75
-43 -20 -78 -45 -95 -67 -26 -35 -27 -40 -27 -171 0 -104 -5 -150 -19 -195
-16 -51 -17 -67 -7 -113 8 -35 10 -87 5 -155 -7 -101 -8 -104 -40 -131 l-34
-29 -50 44 c-33 28 -48 48 -44 58 28 73 32 120 17 183 -15 63 -15 65 11 130
29 73 32 110 11 147 -9 16 -14 56 -15 112 0 84 -1 89 -32 123 -17 20 -62 52
-99 70 -44 23 -80 50 -106 81 -21 26 -55 55 -77 65 -38 16 -38 18 -40 73 l-1
56 43 0 c59 0 98 -19 163 -78 30 -28 80 -62 110 -75 30 -13 71 -38 90 -55 l34
-30 28 27 c15 16 58 43 95 61 37 18 90 54 117 80 46 42 82 62 140 73 11 2 22
2 24 1 2 -2 3 -33 3 -69z m-197 19 c-27 -25 -69 -54 -93 -65 -23 -10 -58 -29
-78 -43 l-36 -24 -86 46 c-92 48 -118 66 -133 94 -8 16 5 17 190 18 110 0 210
4 223 9 59 24 64 11 13 -35z m-665 -43 l0 -50 -47 26 c-27 15 -50 28 -51 29
-4 3 78 42 91 43 4 1 7 -21 7 -48z m936 28 l48 -22 -45 -23 c-24 -13 -47 -23
-51 -24 -5 0 -8 20 -8 45 0 25 2 45 4 45 2 0 25 -10 52 -21z m-1035 -153 c77
-21 85 -33 70 -100 -6 -29 -18 -62 -26 -74 l-15 -21 -25 25 c-20 20 -34 24
-79 24 l-55 0 31 66 c26 56 29 70 19 86 -11 17 -10 19 6 15 10 -3 43 -12 74
-21z m1158 5 c-10 -15 -7 -30 19 -85 l31 -66 -55 0 c-45 0 -59 -4 -79 -24
l-25 -25 -15 21 c-8 12 -20 46 -26 75 -15 67 -7 78 82 103 81 24 81 24 68 1z
m-1751 -27 c31 -35 25 -75 -29 -219 -31 -84 -37 -109 -29 -125 6 -11 15 -20
21 -20 18 0 59 49 79 93 19 42 20 42 20 11 0 -39 -51 -111 -84 -120 -68 -17
-86 19 -67 136 14 86 9 105 -25 98 -12 -2 -34 -31 -55 -72 -20 -38 -50 -84
-66 -103 -26 -28 -37 -33 -77 -33 -25 0 -46 5 -46 10 0 6 8 10 18 10 29 0 49
29 86 123 19 48 43 103 55 122 28 48 17 44 -14 -5 -14 -22 -30 -40 -35 -40
-14 0 59 99 82 111 11 6 38 9 59 7 44 -4 53 8 13 18 -18 5 -41 0 -71 -15 -25
-12 -48 -20 -51 -17 -2 3 24 19 59 36 77 37 121 35 157 -6z m497 25 c4 -5 4
-22 0 -37 l-8 -27 -7 25 c-5 14 -8 31 -9 38 -1 15 15 16 24 1z m1291 -5 c-3
-9 -6 -25 -7 -37 l0 -22 -11 22 c-12 24 -5 53 13 53 6 0 8 -7 5 -16z m633 -14
c35 -17 61 -33 59 -36 -3 -3 -26 5 -51 17 -30 15 -53 20 -71 15 -40 -10 -31
-22 13 -18 21 2 48 -1 59 -7 23 -12 96 -111 82 -111 -5 0 -21 18 -35 40 -31
49 -42 53 -14 5 12 -19 36 -74 55 -122 37 -94 57 -123 86 -123 10 0 18 -4 18
-10 0 -5 -21 -10 -46 -10 -40 0 -51 5 -77 33 -16 19 -46 65 -66 103 -21 41
-43 70 -55 72 -34 7 -39 -12 -25 -98 17 -108 8 -135 -46 -135 -34 0 -43 5 -72
43 -21 28 -33 55 -33 75 0 29 1 28 26 -22 15 -28 37 -59 51 -68 22 -15 26 -15
40 0 15 15 14 23 -17 104 -18 48 -39 115 -48 147 -14 52 -14 62 -1 85 16 28
53 51 84 51 11 0 49 -14 84 -30z m-1497 -83 c83 -40 98 -64 98 -150 0 -39 8
-95 17 -124 17 -53 17 -56 -5 -116 -24 -68 -28 -122 -12 -179 13 -44 -3 -118
-24 -118 -19 0 -116 110 -122 140 -3 14 -18 50 -33 80 -34 67 -64 157 -91 272
l-21 87 26 93 c15 51 29 96 32 101 2 4 21 -7 41 -25 21 -18 63 -46 94 -61z
m568 47 c0 -3 9 -39 21 -81 19 -74 20 -80 4 -148 -33 -141 -58 -208 -143 -383
-16 -34 -107 -144 -124 -151 -6 -2 -7 22 -3 63 5 42 3 89 -5 124 -10 49 -9 67
5 122 12 44 16 102 16 191 -1 125 -1 128 26 160 15 17 45 40 68 50 22 10 56
29 75 42 29 21 60 26 60 11z m340 -149 c0 -12 9 -34 20 -48 11 -14 23 -39 26
-56 6 -28 4 -31 -19 -31 -14 0 -39 -11 -54 -24 -27 -24 -28 -27 -26 -116 l2
-92 -67 9 c-113 13 -198 5 -217 -21 -8 -10 -19 -14 -31 -10 -17 6 -17 5 1 -9
23 -18 14 -32 -29 -43 l-28 -7 27 49 c47 82 46 81 151 86 124 5 128 9 103 108
-25 104 -25 114 6 106 20 -5 25 -3 25 13 0 35 -20 73 -40 78 -23 6 -25 16 -7
31 16 14 128 20 145 8 6 -5 12 -19 12 -31z m-1242 23 c17 -17 15 -25 -8 -31
-20 -5 -40 -43 -40 -78 0 -16 5 -18 25 -13 30 8 32 -3 9 -88 -29 -114 -19
-125 118 -127 71 -1 78 -3 98 -28 20 -26 20 -28 4 -40 -14 -10 -19 -10 -29 4
-19 25 -113 33 -222 19 l-63 -9 3 93 c2 89 1 92 -26 116 -15 13 -40 24 -54 24
-23 0 -25 3 -19 31 3 17 15 42 26 56 11 14 20 36 20 48 0 12 3 25 7 28 11 12
138 8 151 -5z m2 -68 c0 -10 -9 -24 -20 -30 -23 -12 -24 -11 -10 24 11 31 30
34 30 6z m125 -65 c15 -69 28 -112 60 -189 7 -16 6 -17 -13 -7 -11 6 -57 11
-102 11 -59 0 -82 4 -86 14 -3 7 2 41 10 74 9 33 16 74 16 91 0 26 6 34 39 51
22 11 43 25 46 31 10 16 13 10 30 -76z m913 41 c26 -13 32 -23 32 -47 0 -17 7
-58 16 -91 8 -33 13 -67 10 -74 -4 -10 -27 -14 -86 -14 -45 0 -90 -5 -101 -10
-23 -13 -23 -12 -1 42 20 47 46 141 57 201 6 36 8 38 23 24 9 -8 32 -22 50
-31z m72 18 c13 -33 13 -33 -10 -27 -13 3 -20 14 -20 29 0 32 18 31 30 -2z
m-1246 -127 c16 -19 18 -34 13 -99 -7 -104 2 -116 73 -100 58 13 105 15 174 6
37 -5 46 -11 46 -26 0 -11 -5 -18 -12 -15 -7 2 -25 0 -40 -4 -16 -4 -41 -4
-57 1 -19 5 -38 4 -54 -5 -19 -9 -28 -10 -36 -2 -9 9 -13 6 -17 -11 -4 -12
-10 -19 -15 -17 -4 3 -13 -4 -19 -15 -12 -23 -19 -24 -57 -9 -40 16 -73 19
-73 7 0 -6 -9 -8 -20 -5 -11 3 -23 1 -26 -5 -3 -5 -12 -7 -20 -4 -8 3 -14 1
-14 -5 0 -7 -10 -9 -24 -5 -20 5 -25 1 -30 -19 -4 -14 -11 -23 -16 -20 -6 4
-10 -7 -10 -23 0 -28 -14 -42 -42 -42 -6 0 -9 25 -6 68 5 87 43 170 131 281
37 46 67 89 67 94 0 17 64 -2 84 -26z m1436 25 c0 -5 30 -47 67 -93 88 -111
126 -194 131 -281 3 -43 0 -68 -6 -68 -28 0 -42 14 -42 42 0 16 -4 27 -10 23
-5 -3 -12 6 -16 20 -5 20 -10 24 -30 19 -14 -4 -24 -2 -24 5 0 6 -6 8 -14 5
-8 -3 -17 -1 -20 4 -3 6 -15 8 -26 5 -11 -3 -20 -1 -20 5 0 13 -38 10 -67 -6
-32 -17 -51 -15 -63 8 -6 11 -15 18 -19 15 -5 -2 -11 5 -15 17 -4 17 -8 20
-17 11 -8 -8 -17 -7 -36 2 -16 9 -35 10 -54 5 -16 -5 -41 -5 -56 -1 -16 4 -34
6 -40 4 -8 -3 -13 4 -13 15 0 18 9 21 68 28 41 4 94 2 137 -5 89 -15 96 -8 88
93 -6 80 4 111 40 126 29 11 57 12 57 2z m-1050 -280 c0 -9 -7 -11 -22 -7 -37
12 -45 25 -24 40 17 13 21 12 32 -3 7 -9 14 -23 14 -30z m-56 -17 c11 -8 30
-12 45 -9 23 5 32 -1 56 -33 17 -21 53 -64 82 -95 29 -32 53 -64 53 -72 0 -8
14 -24 30 -36 17 -12 30 -27 30 -33 0 -7 -4 -6 -10 3 -5 8 -10 10 -10 4 0 -14
-33 -14 -42 0 -5 7 -8 7 -8 -2 0 -7 -4 -10 -10 -7 -5 3 -10 1 -10 -5 0 -6 -4
-8 -10 -5 -5 3 -10 2 -10 -3 0 -4 31 -8 70 -8 38 1 70 4 70 9 0 4 9 7 20 7 11
0 20 -3 20 -7 0 -5 32 -8 70 -9 39 0 70 4 70 8 0 5 -4 6 -10 3 -5 -3 -10 -1
-10 5 0 6 -4 8 -10 5 -5 -3 -10 0 -10 7 0 10 -2 10 -9 -1 -7 -10 -13 -11 -30
-2 -16 9 -21 9 -21 0 0 -7 -3 -10 -6 -6 -8 8 31 62 101 137 34 36 74 82 90
103 25 34 33 38 58 33 20 -4 36 -1 47 9 12 11 26 14 44 9 21 -5 25 -10 20 -28
-6 -21 -26 -42 -48 -49 -7 -3 -2 -16 12 -35 12 -17 22 -37 22 -45 0 -20 117
-21 124 0 4 8 3 19 0 24 -3 6 -2 18 2 27 13 31 14 52 1 54 -6 0 -17 2 -23 2
-15 2 -44 26 -44 37 0 5 17 9 38 9 26 0 54 -11 90 -34 48 -31 57 -33 89 -24
60 16 203 -21 203 -53 0 -9 12 -28 27 -43 26 -26 26 -28 14 -76 -7 -27 -10
-54 -6 -60 9 -14 -13 -13 -74 6 -44 13 -50 18 -40 30 6 8 18 14 26 14 8 0 23
5 34 10 16 9 17 14 8 33 -11 19 -14 31 -18 76 -1 10 -10 12 -31 7 -17 -3 -39
0 -50 6 -23 14 -54 -7 -45 -30 3 -8 -4 -26 -16 -39 -13 -12 -19 -26 -15 -30 4
-4 12 0 17 10 12 20 29 23 29 3 0 -7 -10 -17 -22 -21 -23 -7 -23 -7 5 -18 40
-16 33 -25 -18 -21 -66 6 -89 -9 -82 -53 4 -19 3 -49 0 -65 -6 -32 -5 -32 -93
-13 -14 3 -52 10 -84 16 -33 5 -62 12 -66 14 -15 9 -184 18 -375 19 -239 1
-332 -8 -596 -59 -23 -4 -27 -1 -32 24 -3 16 -4 45 0 64 7 44 -18 60 -83 54
-50 -6 -58 4 -16 20 27 11 27 11 5 18 -13 4 -23 14 -23 21 0 20 17 17 29 -3 5
-10 13 -15 16 -11 4 4 -2 16 -13 28 -11 12 -18 28 -16 35 3 7 1 16 -5 20 -6 3
-11 -1 -11 -9 0 -9 -7 -16 -15 -16 -19 0 -19 9 2 32 14 16 15 18 0 18 -9 0
-19 -5 -23 -11 -3 -6 -17 -8 -31 -4 -18 4 -24 2 -21 -7 3 -7 13 -13 23 -13 10
0 20 -6 23 -13 2 -6 12 -12 23 -12 20 0 26 -15 9 -25 -5 -3 -7 -12 -4 -19 3
-8 -5 -15 -23 -19 -40 -8 -83 2 -76 18 2 8 12 11 21 8 13 -4 14 -2 4 4 -7 6
-12 14 -11 19 1 5 1 21 0 37 -1 38 -19 34 -19 -5 -1 -18 -4 -45 -8 -61 -6 -24
-3 -28 25 -33 17 -4 35 -12 41 -19 11 -14 -15 -26 -85 -40 -27 -5 -30 -3 -32
22 -1 16 -5 45 -9 65 -5 30 -3 39 10 44 9 3 16 12 16 20 0 8 5 14 10 14 6 0
10 8 10 18 0 36 156 71 215 50 15 -6 36 2 75 27 58 37 120 48 120 21 0 -15
-16 -29 -35 -32 -5 0 -15 -2 -22 -2 -14 -2 -13 -42 0 -42 5 0 7 -13 4 -28 -8
-41 2 -48 66 -49 45 -1 57 2 57 14 0 8 9 26 20 40 l20 26 -35 34 c-41 40 -43
50 -12 56 38 7 41 7 61 -8z m-99 -51 c-19 -15 -19 -15 9 -8 25 6 28 5 22 -14
-4 -11 -2 -23 3 -27 7 -3 8 0 5 9 -5 12 0 16 17 16 l23 0 -26 -27 c-14 -16
-23 -34 -20 -42 3 -11 -1 -12 -19 -8 -13 4 -27 7 -31 7 -5 0 -8 7 -8 15 0 8
-9 15 -20 15 -25 0 -26 15 -2 30 15 10 14 10 -4 5 -15 -4 -24 0 -28 11 -5 13
-2 15 13 11 13 -3 29 4 43 17 14 14 27 19 33 14 6 -6 3 -15 -10 -24z m955 -7
c16 4 19 2 14 -11 -4 -11 -13 -15 -28 -11 -18 5 -19 5 -3 -5 23 -15 22 -30 -3
-30 -11 0 -20 -7 -20 -15 0 -8 -3 -15 -7 -15 -5 0 -19 -3 -32 -7 -18 -4 -22
-3 -19 8 3 8 -6 26 -20 42 l-26 27 23 0 c17 0 22 -4 17 -16 -3 -9 -2 -12 5 -9
5 4 7 16 3 27 -6 19 -3 20 22 14 27 -7 28 -6 10 7 -10 8 -16 19 -12 25 4 7 15
2 32 -13 15 -14 32 -21 44 -18z m327 -79 c-3 -11 0 -33 8 -48 14 -27 13 -28
-13 -33 -45 -8 -77 -2 -77 16 0 8 -4 19 -8 23 -12 12 -8 24 8 24 9 0 18 7 21
15 4 10 13 13 24 10 10 -3 21 -1 25 5 11 17 18 11 12 -12z m-1777 -102 c0 -2
3 -11 6 -20 5 -12 0 -16 -19 -16 -30 0 -45 18 -26 31 15 9 39 12 39 5z m1914
-2 c28 -11 18 -34 -14 -34 -32 0 -33 1 -24 24 7 17 14 19 38 10z m86 -40 c0
-14 -47 -31 -57 -21 -3 3 1 19 8 36 13 28 15 29 31 14 10 -9 18 -22 18 -29z
m-2070 17 c16 -31 12 -41 -15 -41 -30 0 -43 24 -25 45 17 20 27 19 40 -4z
m377 -18 c7 -20 -36 -49 -100 -67 -94 -26 -110 -39 -102 -86 l7 -39 -45 -6
c-25 -4 -53 -5 -62 -3 -10 1 -35 32 -57 68 -21 36 -46 71 -55 78 -14 10 -7 12
43 12 32 0 108 14 169 30 111 29 195 35 202 13z m1465 -13 c67 -16 147 -30
177 -30 l55 0 -26 -27 c-15 -16 -39 -50 -55 -78 -32 -55 -44 -60 -110 -50
l-45 6 7 39 c6 33 3 41 -17 54 -13 8 -36 18 -53 22 -53 12 -123 45 -129 61
-17 42 31 43 196 3z m-1465 -104 c-5 -12 -112 -36 -160 -36 -14 0 -29 5 -32
10 -12 19 15 38 83 59 37 11 74 25 82 31 12 7 17 3 23 -22 5 -17 6 -36 4 -42z
m1385 30 c58 -17 85 -37 73 -56 -3 -5 -19 -10 -34 -10 -37 0 -144 21 -154 30
-5 4 -5 24 -2 43 7 36 8 36 34 23 14 -8 52 -21 83 -30z m-507 14 c141 -13 276
-36 390 -66 49 -13 112 -24 139 -24 48 0 48 0 32 -22 -9 -13 -31 -45 -48 -71
-19 -27 -44 -50 -57 -54 -13 -3 -74 6 -135 21 -162 39 -323 55 -561 56 -240 0
-420 -18 -572 -56 -56 -14 -112 -24 -124 -22 -14 2 -43 29 -77 73 l-53 70 63
6 c35 4 97 16 139 27 231 62 587 88 864 62z"/>
<path d="M2565 1925 c6 -2 28 -8 50 -14 36 -9 38 -9 21 4 -11 8 -34 15 -50 14
-17 0 -26 -2 -21 -4z"/>
<path d="M185 1134 c-13 -14 -29 -50 -36 -80 -7 -29 -15 -52 -18 -49 -4 2 -17
-15 -29 -38 l-23 -42 30 29 c29 28 41 54 55 118 3 14 18 40 32 57 31 38 23 41
-11 5z"/>
<path d="M223 1128 c-23 -26 -57 -88 -50 -94 2 -2 12 15 23 37 10 23 32 50 49
60 17 11 23 19 14 19 -8 0 -25 -10 -36 -22z"/>
<path d="M2803 1131 c15 -18 30 -45 33 -59 14 -64 26 -90 55 -118 l30 -29 -23
42 c-12 23 -26 40 -29 37 -4 -2 -10 13 -14 34 -10 53 -34 101 -58 114 -18 9
-17 6 6 -21z"/>
<path d="M2755 1131 c17 -10 39 -37 49 -60 11 -22 21 -39 23 -37 6 6 -33 81
-52 100 -9 9 -24 16 -33 16 -11 0 -6 -7 13 -19z"/>
<path d="M2147 1040 c4 -50 3 -57 -21 -79 -14 -14 -26 -34 -25 -45 0 -15 2
-17 6 -6 3 8 17 28 29 43 25 29 29 70 14 117 -5 16 -7 6 -3 -30z"/>
<path d="M861 961 c8 -13 20 -33 26 -45 13 -21 13 -21 13 0 0 11 -12 31 -26
45 l-27 24 14 -24z"/>
<path d="M830 556 c0 -9 -4 -14 -10 -11 -5 3 -10 1 -10 -5 0 -6 -4 -8 -10 -5
-5 3 -10 1 -10 -4 0 -13 20 -14 38 -3 7 5 35 6 62 2 37 -5 51 -3 55 8 8 22 6
25 -10 12 -12 -10 -15 -10 -15 1 0 11 -2 11 -10 -1 -9 -13 -11 -13 -20 0 -9
13 -10 13 -10 0 0 -13 -1 -13 -10 0 -9 13 -10 13 -10 0 -1 -11 -4 -10 -15 4
-14 18 -15 18 -15 2z"/>
<path d="M2156 553 c-6 -14 -9 -15 -15 -4 -7 11 -9 11 -14 0 -4 -11 -6 -11 -6
1 -1 13 -2 13 -11 0 -9 -13 -11 -13 -20 0 -6 10 -10 11 -10 3 0 -7 -7 -10 -15
-7 -11 5 -13 2 -9 -10 3 -9 9 -14 13 -11 4 2 28 5 54 6 38 2 47 6 47 21 0 23
-6 23 -14 1z"/>
<path d="M1143 527 c-8 -14 6 -22 18 -10 8 8 20 8 41 1 22 -8 32 -7 41 2 9 10
9 11 0 6 -8 -4 -13 -2 -13 6 0 9 -3 9 -10 -2 -5 -8 -10 -10 -10 -5 0 12 -59
14 -67 2z"/>
<path d="M1790 528 c0 -4 -10 -5 -22 -3 -16 3 -19 2 -11 -6 8 -8 20 -8 42 -1
19 7 33 7 36 1 9 -13 27 -11 23 3 -5 13 -68 19 -68 6z"/>
<path d="M1243 481 c-9 -11 -20 -18 -25 -15 -4 3 -17 0 -28 -6 -17 -9 -18 -14
-9 -31 5 -11 9 -30 8 -42 -3 -32 10 -55 29 -52 9 2 29 4 44 4 19 1 26 5 22 15
-4 11 -13 12 -37 5 -18 -5 -36 -9 -40 -9 -10 0 -2 31 20 78 11 25 18 31 27 22
8 -5 21 -7 31 -4 13 5 16 2 14 -12 -2 -10 0 -25 5 -33 5 -7 5 -16 -1 -20 -5
-3 -6 -17 -2 -31 6 -22 7 -22 8 -4 1 11 12 34 26 50 l24 28 -25 17 c-14 9 -32
26 -40 38 -19 26 -29 26 -51 2z"/>
<path d="M1706 479 c-8 -12 -26 -29 -40 -39 l-26 -16 21 -23 c12 -12 25 -34
29 -49 7 -24 8 -25 9 -4 1 12 6 22 12 22 6 0 9 -7 5 -15 -4 -11 2 -15 24 -16
17 -1 36 -2 43 -3 16 -2 36 25 30 41 -3 7 -1 25 5 41 10 30 -6 56 -31 47 -7
-3 -22 3 -32 15 -23 25 -30 25 -49 -1z m45 -11 c10 -13 18 -30 19 -40 0 -9 4
-18 8 -20 5 -1 12 -16 16 -32 7 -27 6 -28 -21 -22 -39 10 -83 30 -83 38 0 4 4
9 9 12 5 3 7 16 4 27 -5 18 -3 20 15 15 12 -4 23 -2 28 5 4 8 3 9 -4 5 -17
-10 -32 2 -25 19 7 20 12 19 34 -7z"/>
<path d="M950 446 c0 -15 -3 -16 -15 -6 -12 10 -15 10 -15 -3 0 -11 -5 -14
-17 -10 -11 4 -14 3 -9 -5 9 -15 36 -16 36 -1 0 5 4 8 8 5 15 -9 31 9 22 24
-8 12 -10 12 -10 -4z"/>
<path d="M2037 446 c-4 -10 -13 -16 -21 -13 -14 6 -32 -21 -21 -31 3 -3 5 0 5
6 0 6 7 9 15 6 8 -4 15 -1 15 4 0 6 9 10 20 9 11 -1 20 -5 20 -9 0 -12 28 -9
36 4 5 8 2 9 -9 5 -12 -4 -17 -1 -17 10 0 12 -3 13 -14 4 -11 -10 -15 -8 -18
6 -3 17 -4 17 -11 -1z"/>
<path d="M980 422 c-13 -14 -12 -15 3 -9 9 3 17 3 17 -1 0 -4 8 -8 19 -9 14
-1 17 3 14 18 -6 21 -23 26 -23 7 0 -10 -2 -10 -8 -2 -5 8 -11 7 -22 -4z"/>
<path d="M1053 429 c-13 -13 -6 -42 8 -33 5 3 9 -1 9 -8 0 -9 3 -9 10 2 14 22
12 33 -6 26 -12 -4 -15 -2 -10 9 6 18 4 19 -11 4z"/>
<path d="M1936 426 c5 -12 2 -15 -11 -10 -12 5 -16 3 -13 -6 6 -18 35 -21 42
-5 3 8 -2 19 -10 26 -12 10 -13 9 -8 -5z"/>
<path d="M2040 320 c0 -8 -12 -11 -35 -8 -22 2 -35 0 -35 -8 0 -7 16 -10 45
-8 25 2 45 0 45 -4 0 -5 7 -9 15 -9 8 0 15 4 15 9 0 4 -4 8 -9 8 -5 0 -17 7
-25 16 -10 10 -16 11 -16 4z"/>
<path d="M933 307 c-26 -12 -30 -24 -8 -24 8 0 15 4 15 8 0 4 20 7 45 5 32 -3
45 0 45 9 0 10 -7 11 -29 5 -16 -4 -33 -4 -37 0 -5 4 -19 3 -31 -3z"/>
<path d="M1449 245 c-4 -25 -1 -87 4 -92 4 -3 7 5 7 18 0 14 5 30 11 36 13 13
5 43 -11 43 -5 0 -10 -2 -11 -5z"/>
<path d="M1490 210 c0 -22 0 -43 0 -47 0 -5 9 -9 20 -9 11 -1 20 5 20 12 0 20
18 17 22 -3 2 -10 6 -13 9 -8 3 6 0 28 -6 50 l-12 40 -10 -34 c-12 -45 -32
-52 -31 -12 1 17 5 31 10 31 5 0 6 5 3 10 -13 22 -25 8 -25 -30z"/>
<path d="M1582 238 c-17 -17 -15 -63 3 -78 9 -7 18 -10 22 -6 4 3 -2 12 -12
20 -13 9 -16 20 -11 40 4 15 11 24 16 21 6 -3 10 -1 10 4 0 14 -13 14 -28 -1z"/>
<path d="M1296 200 c8 -52 -11 -54 -21 -2 -6 30 -9 34 -15 17 -15 -42 -20 -75
-11 -75 5 0 12 8 14 18 4 15 5 15 6 0 1 -11 7 -15 21 -11 16 4 20 14 20 44 0
53 18 50 23 -3 l4 -43 1 43 c2 53 22 56 22 2 0 -22 4 -40 9 -40 5 0 9 20 8 45
l-2 45 -43 0 -42 0 6 -40z"/>
<path d="M1620 195 c0 -33 4 -45 15 -45 8 0 15 5 15 11 0 5 -4 7 -10 4 -5 -3
-10 0 -10 9 0 8 6 17 13 19 10 4 10 6 0 6 -7 1 -13 7 -13 15 0 8 6 17 13 19 7
3 5 6 -5 6 -15 1 -18 -8 -18 -44z"/>
<path d="M1690 230 c-2 -22 -7 -42 -15 -65 -6 -16 -5 -17 4 -5 10 13 12 13 21
0 8 -12 10 -10 9 10 -1 31 -16 80 -19 60z"/>
<path d="M1720 232 c0 -5 9 -26 20 -48 22 -45 27 -30 6 21 -14 33 -26 45 -26
27z"/>
<path d="M1210 185 c0 -25 4 -45 10 -45 5 0 7 7 3 16 -3 9 0 20 8 25 10 6 10
9 2 9 -7 0 -13 6 -13 14 0 8 6 17 13 19 7 3 5 6 -5 6 -15 1 -18 -8 -18 -44z"/>
<path d="M1760 220 c0 -6 5 -8 10 -5 6 4 10 -10 10 -35 0 -34 3 -41 18 -38 13
2 17 13 17 43 0 36 -3 40 -27 43 -16 2 -28 -2 -28 -8z m50 -35 c0 -13 -4 -27
-10 -30 -6 -4 -10 8 -10 30 0 22 4 34 10 30 6 -3 10 -17 10 -30z"/>
<path d="M1140 176 c0 -51 20 -63 40 -25 17 31 9 63 -17 67 -21 3 -23 -1 -23
-42z m30 -2 c0 -21 -4 -33 -10 -29 -5 3 -10 19 -10 36 0 16 5 29 10 29 6 0 10
-16 10 -36z"/>
<path d="M1847 178 c-3 -24 -4 -45 -1 -47 9 -9 16 9 17 43 1 22 4 31 9 23 5
-8 8 -7 8 6 0 9 -6 17 -14 17 -8 0 -16 -16 -19 -42z"/>
<path d="M1886 188 c-8 -43 -8 -58 4 -58 5 0 7 8 4 18 -3 9 2 6 11 -8 l16 -25
-5 27 c-3 14 -9 34 -12 45 -5 15 -4 15 5 3 9 -13 11 -13 11 1 0 32 -27 29 -34
-3z"/>
<path d="M1054 183 c3 -19 1 -33 -4 -33 -6 0 -9 -10 -9 -22 1 -17 2 -19 6 -5
5 20 19 22 27 5 3 -7 3 3 0 22 -4 19 -11 42 -16 50 -6 11 -8 5 -4 -17z"/>
<path d="M1092 165 c1 -33 2 -40 5 -20 l5 30 14 -25 c12 -22 13 -23 13 -5 0
11 -8 31 -19 45 l-20 25 2 -50z"/>
<path d="M1937 204 c-4 -4 -7 -25 -7 -46 0 -32 3 -39 18 -36 13 2 17 13 17 42
0 37 -13 55 -28 40z m23 -39 c0 -19 -4 -35 -10 -35 -5 0 -10 16 -10 35 0 19 5
35 10 35 6 0 10 -16 10 -35z"/>
<path d="M1010 189 c0 -6 -9 -8 -20 -4 -11 4 -34 4 -50 0 -29 -6 -30 -8 -24
-46 8 -49 -7 -51 -30 -3 -9 20 -20 34 -23 30 -11 -11 31 -76 49 -76 14 0 18 8
18 40 0 22 5 40 10 40 6 0 10 -16 10 -35 0 -19 3 -35 8 -35 4 0 6 19 4 41 -6
55 21 49 29 -7 3 -23 8 -33 11 -24 8 20 18 90 12 90 -2 0 -4 -5 -4 -11z"/>
<path d="M1984 186 c-10 -27 1 -71 19 -74 11 -2 17 3 16 15 0 10 -3 13 -6 5
-7 -18 -23 -4 -23 22 0 29 6 35 30 29 11 -3 20 -16 22 -33 2 -16 1 -27 -4 -24
-4 3 -8 -2 -8 -11 0 -11 5 -15 14 -12 8 3 17 1 19 -6 2 -7 4 10 3 38 -1 43 -4
50 -26 56 -39 11 -50 10 -56 -5z"/>
<path d="M2080 135 c0 -40 3 -45 23 -47 36 -2 41 -3 55 -12 22 -13 39 11 24
34 -15 24 -16 44 -2 35 6 -3 10 -1 10 4 0 6 -7 11 -15 11 -18 0 -20 -41 -4
-57 7 -7 7 -13 1 -17 -6 -3 -18 8 -26 25 -18 37 -20 53 -6 44 6 -3 10 -1 10 4
0 6 -7 11 -15 11 -18 0 -20 -41 -3 -58 16 -16 7 -22 -20 -15 -23 6 -31 33 -9
33 8 0 7 4 -3 11 -11 8 -12 12 -2 16 17 7 15 23 -3 23 -11 0 -15 -12 -15 -45z"/>
<path d="M811 133 c-1 -41 8 -63 25 -63 10 0 14 13 12 48 l-1 47 -5 -45 -5
-45 -12 45 c-12 42 -13 43 -14 13z"/>
<path d="M635 1937 c-21 -16 -11 -26 34 -31 29 -3 29 -3 14 20 -18 28 -23 29
-48 11z"/>
<path d="M2317 1926 c-15 -23 -15 -23 14 -20 45 5 55 15 34 31 -25 18 -30 17
-48 -11z"/>
<path d="M550 1859 c0 -26 17 -40 56 -49 55 -13 77 -12 68 2 -5 8 -2 9 10 5
10 -4 15 -3 11 3 -3 6 -27 10 -52 10 -34 0 -53 6 -70 22 -16 15 -23 17 -23 7z"/>
<path d="M2425 1850 c-13 -15 -31 -20 -69 -21 -28 0 -45 -3 -38 -6 6 -2 10 -9
6 -14 -7 -12 32 -11 78 1 23 7 39 18 43 31 9 29 1 33 -20 9z"/>
<path d="M2487 1785 c-13 -30 -47 -71 -105 -126 -65 -62 -82 -83 -71 -90 20
-12 50 -11 90 3 l34 13 -42 5 -43 5 65 65 c36 37 72 83 81 107 22 57 14 74 -9
18z"/>
<path d="M500 1793 c0 -31 26 -72 87 -134 l66 -69 -44 -1 -44 -1 30 -13 c37
-17 77 -19 93 -3 8 8 -6 27 -60 77 -39 36 -84 86 -100 110 -15 25 -28 40 -28
34z"/>
<path d="M551 1552 c-1 -28 14 -56 62 -109 20 -24 37 -51 37 -61 0 -11 -13
-48 -28 -83 -50 -112 -48 -104 -58 -202 -5 -47 -3 -81 6 -108 12 -35 12 -45
-2 -72 -9 -18 -19 -50 -22 -72 -4 -28 -3 -34 4 -20 5 11 9 30 9 42 1 12 10 27
20 33 28 15 34 45 17 79 -33 62 -13 203 44 315 42 82 40 113 -11 161 -23 22
-50 57 -60 80 -14 31 -18 35 -18 17z"/>
<path d="M2430 1536 c-6 -20 -31 -55 -56 -78 -54 -53 -56 -81 -14 -164 57
-112 77 -253 44 -315 -17 -34 -11 -64 17 -79 10 -6 19 -21 20 -33 0 -12 4 -31
9 -42 6 -13 7 -5 3 25 -3 25 -13 57 -21 72 -13 23 -14 33 -4 61 7 18 12 56 12
83 0 60 -40 207 -69 254 -30 51 -26 73 23 129 24 27 47 64 51 81 10 44 -1 48
-15 6z"/>
<path d="M700 965 c0 -9 -9 -34 -20 -55 -23 -46 -21 -53 5 -14 22 34 37 84 24
84 -5 0 -9 -7 -9 -15z"/>
<path d="M2288 975 c-9 -10 11 -61 29 -77 15 -12 15 -11 3 11 -7 14 -16 35
-19 49 -4 13 -9 20 -13 17z"/>
<path d="M506 758 c-12 -16 -15 -43 -14 -93 l2 -70 3 69 c2 39 11 78 20 92 19
30 10 32 -11 2z"/>
<path d="M2483 759 c9 -15 18 -57 20 -95 l3 -69 2 71 c2 61 -1 75 -19 95 l-21
24 15 -26z"/>
<path d="M1295 80 c-2 -4 14 -7 36 -8 22 -1 38 2 34 7 -6 11 -64 12 -70 1z"/>
<path d="M1458 70 c-16 -18 -14 -18 40 -13 31 3 62 10 67 16 7 7 6 8 -2 3 -8
-4 -13 -2 -13 6 0 8 -3 9 -8 3 -8 -12 -41 -13 -58 -3 -6 4 -18 -1 -26 -12z"/>
<path d="M1626 78 c3 -4 23 -8 45 -8 22 0 38 4 35 9 -3 5 -24 8 -45 8 -22 0
-38 -4 -35 -9z"/>
</g>
</svg>
